#!OML:ASF H:\Pregnant\Project 1\Capture day 1\Session 1\femalepreg.ASF
:FULLY-SPECIFIED
:DEGREES
562
root -0.898787 16.382 -28.2135 20.8709 -4.18993 0.0152309
lowerback -10.6546 3.80942 12.5701
upperback -6.37174 3.92372 0.687317
thorax -0.046995 1.66445 -5.88041
lowerneck -19.4934 -2.58616 -0.27846
upperneck 21.1575 -2.24592 -5.14419
head 9.89397 -1.6805 -2.07902
rclavicle -3.35449e-014 -1.59028e-014
rhumerus -16.9862 -2.28084 -77.6698
rradius 34.4989
rwrist -16.1022
rhand -19.5735 -20.4361
rfingers 7.12502
rthumb 6.75153 -50.3085
lclavicle -3.35449e-014 -1.59028e-014
lhumerus -50.7594 7.56731 75.9381
lradius 28.7117
lwrist 44.1714
lhand -19.0824 -0.0554579
lfingers 7.12502
lthumb 7.22558 29.8012
rfemur -28.9876 15.298 18.1011
rtibia 30.9514
rfoot -15.5239 -13.2845
rtoes -23.9425
lfemur -47.7251 -7.17697 -15.5566
ltibia 23.3554
lfoot 3.74025 1.32386
ltoes -21.9134
563
root -0.90245 16.3867 -28.2799 20.7074 -3.90704 0.130934
lowerback -10.6249 3.68051 12.544
upperback -6.32854 3.75501 0.890154
thorax -0.0630657 1.58452 -5.67318
lowerneck -19.552 -2.52873 -0.200492
upperneck 21.3201 -2.15075 -5.27626
head 9.9631 -1.64816 -2.13075
rclavicle -3.03644e-014 1.59028e-015
rhumerus -17.1619 -2.11227 -77.6226
rradius 35.2806
rwrist -16.3359
rhand -19.448 -20.3527
rfingers 7.12502
rthumb 6.87272 -50.2212
lclavicle -3.03644e-014 1.59028e-015
lhumerus -50.9047 6.86284 76.9767
lradius 28.6928
lwrist 43.2484
lhand -16.9548 0.136625
lfingers 7.12502
lthumb 9.27895 29.9124
rfemur -29.1351 15.2543 18.0315
rtibia 31.1378
rfoot -15.3394 -13.4552
rtoes -23.9426
lfemur -47.6442 -7.24445 -15.8815
ltibia 24.4014
lfoot 2.9499 1.83009
ltoes -21.0964
564
root -0.906182 16.3913 -28.3454 20.5343 -3.61263 0.243034
lowerback -10.6036 3.54986 12.5136
upperback -6.2795 3.58278 1.08613
thorax -0.0674422 1.50385 -5.4706
lowerneck -19.6176 -2.47912 -0.140717
upperneck 21.4798 -2.06695 -5.38253
head 10.0331 -1.61958 -2.17213
rclavicle -5.26779e-015 1.27222e-014
rhumerus -17.3724 -1.99948 -77.5742
rradius 36.0397
rwrist -16.5045
rhand -19.3197 -20.2578
rfingers 7.12502
rthumb 6.99653 -50.1222
lclavicle -5.26779e-015 1.27222e-014
lhumerus -51.034 6.08707 78.0293
lradius 28.7126
lwrist 42.2272
lhand -14.6053 0.358521
lfingers 7.12502
lthumb 11.5454 30.0205
rfemur -29.2637 15.1969 17.9723
rtibia 31.3251
rfoot -15.1629 -13.6235
rtoes -23.94
lfemur -47.5603 -7.32338 -16.2026
ltibia 25.5539
lfoot 2.19345 2.38759
ltoes -20.299
565
root -0.909942 16.3952 -28.4102 20.3579 -3.30764 0.355667
lowerback -10.5824 3.41267 12.4741
upperback -6.22392 3.40238 1.27125
thorax -0.0646198 1.41991 -5.27536
lowerneck -19.7496 -2.4224 -0.0591523
upperneck 21.6623 -1.97693 -5.49166
head 10.1238 -1.58762 -2.21939
rclavicle 1.37161e-014 -1.11319e-014
rhumerus -17.5973 -1.93273 -77.5381
rradius 36.7616
rwrist -16.6223
rhand -19.1952 -20.1416
rfingers 7.12502
rthumb 7.11672 -50.002
lclavicle 1.37161e-014 -1.11319e-014
lhumerus -51.1412 5.25995 79.0764
lradius 28.7794
lwrist 41.1211
lhand -12.1313 0.597959
lfingers 7.12502
lthumb 13.9305 30.1113
rfemur -29.3865 15.1282 17.9161
rtibia 31.5201
rfoot -14.9967 -13.7921
rtoes -23.9326
lfemur -47.4695 -7.4097 -16.526
ltibia 26.8009
lfoot 1.553 2.93328
ltoes -19.9122
566
root -0.913549 16.3981 -28.4742 20.1787 -3.00042 0.465544
lowerback -10.5663 3.28077 12.4386
upperback -6.16603 3.22788 1.43575
thorax -0.0530072 1.33916 -5.10303
lowerneck -19.8889 -2.36972 0.031454
upperneck 21.8409 -1.89604 -5.59766
head 10.2144 -1.55885 -2.2685
rclavicle -2.59911e-014 -5.08889e-014
rhumerus -17.8486 -1.93142 -77.5134
rradius 37.431
rwrist -16.6985
rhand -19.0841 -19.9977
rfingers 7.12502
rthumb 7.224 -49.8544
lclavicle -2.59911e-014 -5.08889e-014
lhumerus -51.2378 4.36426 80.1102
lradius 28.9086
lwrist 39.9647
lhand -9.60797 0.885631
lfingers 7.12502
lthumb 16.3611 30.2155
rfemur -29.5069 15.0532 17.864
rtibia 31.7262
rfoot -14.8415 -13.9607
rtoes -23.9261
lfemur -47.3631 -7.50149 -16.846
ltibia 28.1305
lfoot 1.01071 3.44793
ltoes -19.9349
